<svg width="186" height="186" viewBox="0 0 186 186" fill="none" xmlns="http://www.w3.org/2000/svg">
<path d="M186 93C186 144.362 144.362 186 93 186C41.6375 186 0 144.362 0 93C0 41.6375 41.6375 0 93 0C144.362 0 186 41.6375 186 93Z" fill="#614C4C"/>
<path fill-rule="evenodd" clip-rule="evenodd" d="M93 182C142.153 182 182 142.153 182 93C182 43.8467 142.153 4 93 4C43.8467 4 4 43.8467 4 93C4 142.153 43.8467 182 93 182ZM93 186C144.362 186 186 144.362 186 93C186 41.6375 144.362 0 93 0C41.6375 0 0 41.6375 0 93C0 144.362 41.6375 186 93 186Z" fill="#BBBC8C" fill-opacity="0.37"/>
<path d="M158 91.5C158 128.227 128.227 158 91.5 158C54.7731 158 25 128.227 25 91.5C25 54.7731 54.7731 25 91.5 25C128.227 25 158 54.7731 158 91.5Z" fill="#F0EFC8"/>
</svg>
